<?xml version="1.0" standalone="no"?>
<!DOCTYPE svg PUBLIC "-//W3C//DTD SVG 20010904//EN"
 "http://www.w3.org/TR/2001/REC-SVG-20010904/DTD/svg10.dtd">
<svg version="1.0" xmlns="http://www.w3.org/2000/svg"
 width="239.000000pt" height="239.000000pt" viewBox="0 0 239.000000 239.000000"
 preserveAspectRatio="xMidYMid meet">
<metadata>
Created by potrace 1.11, written by Peter Selinger 2001-2013
</metadata>
<g transform="translate(0.000000,239.000000) scale(0.100000,-0.100000)"
fill="#000000" stroke="none">
<path d="M545 2004 c-215 -44 -404 -207 -485 -415 -54 -140 -58 -187 -59 -726
-1 -488 -1 -493 19 -493 20 0 20 6 20 448 1 491 3 536 25 640 30 145 80 238
184 341 126 125 291 184 496 176 55 -2 113 -6 128 -9 41 -9 158 -55 174 -67
16 -14 43 -5 43 14 0 13 -59 43 -145 75 -88 33 -281 41 -400 16z"/>
<path d="M1565 2014 c-11 -2 -45 -9 -75 -15 -80 -16 -206 -80 -275 -140 -140
-121 -216 -273 -243 -483 -5 -38 -9 -280 -9 -537 l-1 -469 22 0 21 0 1 493 c0
525 4 577 55 712 57 152 198 296 350 355 120 48 291 61 424 33 267 -56 471
-286 502 -568 2 -22 6 -49 8 -60 2 -11 4 -233 4 -492 1 -467 1 -473 21 -473
20 0 20 5 19 488 0 522 -5 586 -53 718 -76 209 -258 371 -472 423 -73 17 -246
26 -299 15z"/>
<path d="M650 1853 c-142 -17 -242 -63 -336 -157 -84 -85 -128 -167 -154 -295
-15 -74 -18 -150 -19 -558 -2 -470 -2 -473 19 -473 12 0 20 7 21 18 0 9 2 228
3 487 2 259 7 484 10 500 29 130 65 202 138 280 95 102 220 155 368 156 97 1
152 -7 221 -35 53 -21 57 -22 67 -5 9 15 4 20 -36 37 -91 39 -207 56 -302 45z"/>
<path d="M1580 1849 c-194 -26 -361 -162 -431 -349 -37 -98 -45 -218 -44 -685
0 -438 0 -440 21 -443 20 -3 21 -3 21 470 1 401 4 485 18 553 24 116 67 199
139 270 105 103 216 147 376 147 229 1 420 -131 489 -339 33 -98 35 -142 36
-635 l0 -468 23 0 23 0 -4 492 c-2 271 -7 507 -11 523 -35 155 -86 248 -182
333 -123 110 -289 156 -474 131z"/>
<path d="M577 1671 c-140 -46 -235 -147 -273 -291 -15 -57 -17 -123 -18 -535
-1 -466 -1 -470 19 -473 21 -3 21 0 21 445 1 246 3 468 7 493 22 170 131 294
289 329 58 14 173 7 228 -13 58 -20 70 -20 70 2 0 50 -233 79 -343 43z"/>
<path d="M1539 1672 c-98 -33 -194 -114 -239 -201 -46 -90 -49 -137 -50 -633
0 -463 0 -468 20 -468 20 0 20 6 21 458 0 251 3 471 5 487 28 187 160 315 341
331 159 14 309 -60 372 -185 51 -99 54 -134 55 -626 1 -453 1 -460 21 -460 20
0 20 6 19 465 0 321 -4 481 -12 518 -29 131 -113 238 -231 294 -55 26 -77 31
-165 34 -80 3 -113 0 -157 -14z"/>
<path d="M653 1519 c-108 -20 -193 -105 -218 -217 -5 -25 -10 -837 -6 -919 1
-7 10 -13 21 -13 20 0 20 7 21 448 0 246 2 456 4 467 16 82 70 151 144 182 57
24 150 19 210 -11 l51 -25 0 24 c0 47 -127 83 -227 64z"/>
<path d="M1620 1520 c-79 -16 -146 -59 -179 -116 -48 -81 -50 -107 -51 -585 0
-444 0 -449 20 -449 14 0 20 7 20 23 2 847 4 911 28 955 34 64 59 88 116 113
100 43 218 20 284 -55 59 -68 62 -92 62 -588 0 -441 0 -448 20 -448 12 0 20 7
21 18 5 96 0 859 -5 897 -9 60 -44 131 -83 167 -58 55 -169 85 -253 68z"/>
</g>
</svg>
